<svg xmlns="http://www.w3.org/2000/svg" width="18" height="15.75" viewBox="0 0 18 15.75">
  <g id="download" transform="translate(0 -6)">
    <path id="Path_79" data-name="Path 79" d="M16.875,54a1.178,1.178,0,0,0-.8.3.991.991,0,0,0-.329.73v3.1H2.25v-3.1A1.082,1.082,0,0,0,1.125,54,1.082,1.082,0,0,0,0,55.032v4.13a.991.991,0,0,0,.329.73,1.178,1.178,0,0,0,.8.3h15.75a1.178,1.178,0,0,0,.8-.3.991.991,0,0,0,.329-.73v-4.13a.991.991,0,0,0-.329-.73,1.178,1.178,0,0,0-.8-.3Z" transform="translate(0 -38.444)" fill="#042b5c"/>
    <path id="Path_80" data-name="Path 80" d="M27.4,16.021a1.032,1.032,0,0,0,1.46,0l3.1-3.1a1.032,1.032,0,1,0-1.46-1.46L29.162,12.8V7.032a1.032,1.032,0,0,0-2.065,0V12.8l-1.335-1.335a1.032,1.032,0,1,0-1.46,1.46Z" transform="translate(-19.13)" fill="#042b5c"/>
  </g>
</svg>
