<svg xmlns="http://www.w3.org/2000/svg" width="14.672" height="15.491" viewBox="0 0 14.672 15.491">
  <g id="notification" transform="translate(-2.833 -1.416)">
    <path id="Path_77" data-name="Path 77" d="M17.423,12.391a.619.619,0,0,0-.244-.213l-.734-.372a1.806,1.806,0,0,1-.688-.6,1.444,1.444,0,0,1-.251-.806V7.048a4.065,4.065,0,0,0-1.066-2.7,5.432,5.432,0,0,0-2.768-1.621.235.235,0,0,1-.12-.069.176.176,0,0,1-.047-.116,1.046,1.046,0,0,0-.391-.8,1.513,1.513,0,0,0-1.886,0,1.046,1.046,0,0,0-.391.8.176.176,0,0,1-.047.116.236.236,0,0,1-.12.069A5.432,5.432,0,0,0,5.9,4.349a4.065,4.065,0,0,0-1.066,2.7V10.4a1.445,1.445,0,0,1-.251.806,1.806,1.806,0,0,1-.688.6l-.734.372a.612.612,0,0,0-.281.277.49.49,0,0,0-.026.364.577.577,0,0,0,.239.3.76.76,0,0,0,.407.12H16.838a.779.779,0,0,0,.332-.08.639.639,0,0,0,.243-.207.5.5,0,0,0,.01-.564Z" transform="translate(0)" fill="#042b5c"/>
    <path id="Path_78" data-name="Path 78" d="M15.476,33.7a3.4,3.4,0,0,0,5.174-1.647H14.234A3.413,3.413,0,0,0,15.476,33.7Z" transform="translate(-7.273 -17.422)" fill="#042b5c"/>
  </g>
</svg>
