<svg id="profile" xmlns="http://www.w3.org/2000/svg" width="22" height="22" viewBox="0 0 22 22">
  <path id="Path_1" data-name="Path 1" d="M11,0A11,11,0,1,0,22,11,11.013,11.013,0,0,0,11,0Zm0,1.375a9.608,9.608,0,0,1,7.61,15.5,17.761,17.761,0,0,0-15.22,0A9.608,9.608,0,0,1,11,1.375ZM4.355,17.946a16.373,16.373,0,0,1,13.291,0,9.581,9.581,0,0,1-13.291,0Z" fill="#002b5c"/>
  <path id="Path_2" data-name="Path 2" d="M177.478,148.282a5.25,5.25,0,1,0-5.25-5.25A5.256,5.256,0,0,0,177.478,148.282Zm0-8.75a3.5,3.5,0,1,1-3.5,3.5A3.5,3.5,0,0,1,177.478,139.532Z" transform="translate(-166.478 -134.182)" fill="#002b5c"/>
</svg>
